<svg width="915" height="193" viewBox="0 0 915 193" fill="none" xmlns="http://www.w3.org/2000/svg">
<path d="M1.40625 49.5625L29.9531 148H34.1719L38.5312 134.219L13.7812 49.5625H1.40625ZM35.1562 100.469L40.5 119.172H41.9062C43.4062 114.297 47.8594 98.5 55.2656 71.7812L76.2188 148H80.4375L84.7969 134.781L61.4531 49.5625H49.0781L35.1562 100.469ZM82.5469 100.469L88.0312 119.172H89.4375L109.969 49.5625H97.5938L82.5469 100.469ZM117.844 61.5156C117.844 58.6094 119.203 56.5469 121.922 55.3281C122.859 54.9531 123.797 54.7656 124.734 54.7656C127.547 54.7656 129.609 56.0781 130.922 58.7031C131.297 59.6406 131.484 60.5781 131.484 61.5156C131.484 64.3281 130.172 66.3906 127.547 67.7031C126.609 68.0781 125.672 68.2656 124.734 68.2656C121.828 68.2656 119.719 66.9531 118.406 64.3281C118.031 63.3906 117.844 62.4531 117.844 61.5156ZM118.828 148V73.8906H130.641V148H118.828ZM143.859 148V48.7188H156.375V148H143.859ZM166.5 127.188V92.4531C166.594 87.3906 168.891 82.7031 173.391 78.3906C177.797 74.1719 182.953 72.0625 188.859 72.0625H199.969V83.4531H189C185.156 83.4531 182.016 85.1875 179.578 88.6562C178.547 90.25 178.031 91.75 178.031 93.1562V126.906C178.031 129.906 179.719 132.484 183.094 134.641C185.062 135.953 187.078 136.609 189.141 136.609H199.969V148H189.281C180.938 148 174.469 144.391 169.875 137.172C167.625 133.609 166.5 130.281 166.5 127.188ZM206.719 148L206.859 48.5781H218.953V148H206.719ZM262.828 148L281.531 64.8906H283.781L288.562 86.6875L274.922 148H262.828ZM285.328 132.25L288 120.297H303.047L287.438 49.7031H299.672L321.891 148H309.656L306.141 132.25H285.328ZM330.75 148V92.4531C330.75 87.9531 332.766 83.5469 336.797 79.2344C341.766 74.1719 347.906 71.6406 355.219 71.6406V83.3125C350.438 83.3125 346.781 85.1875 344.25 88.9375C343.219 90.5312 342.703 92.1719 342.703 93.8594V148H330.75ZM361.406 83.3125V71.6406C370.125 71.6406 376.922 75.1562 381.797 82.1875C384.422 85.8438 385.734 89.2656 385.734 92.4531V148H373.781V93.8594C373.781 90.9531 372.328 88.375 369.422 86.125C367.078 84.25 364.406 83.3125 361.406 83.3125ZM397.547 61.5156C397.547 58.6094 398.906 56.5469 401.625 55.3281C402.562 54.9531 403.5 54.7656 404.438 54.7656C407.25 54.7656 409.312 56.0781 410.625 58.7031C411 59.6406 411.188 60.5781 411.188 61.5156C411.188 64.3281 409.875 66.3906 407.25 67.7031C406.312 68.0781 405.375 68.2656 404.438 68.2656C401.531 68.2656 399.422 66.9531 398.109 64.3281C397.734 63.3906 397.547 62.4531 397.547 61.5156ZM398.531 148V73.8906H410.344V148H398.531ZM423 148V92.4531C423 87.2031 424.969 82.5156 428.906 78.3906C433.312 73.8906 438.891 71.6406 445.641 71.6406V83.1719C440.578 83.1719 437.25 85.375 435.656 89.7812C435.188 91.1875 434.953 92.5938 434.953 94V148H423ZM451.969 83.1719V71.6406C459.094 71.8281 464.719 74.3125 468.844 79.0938C473.531 74.3125 479.156 71.8281 485.719 71.6406V83.1719C480.656 83.1719 477.281 85.375 475.594 89.7812C475.125 91.0938 474.891 92.5 474.891 94V148H462.938V94C462.938 89.2188 460.922 85.9375 456.891 84.1562C455.391 83.5 453.75 83.1719 451.969 83.1719ZM492.047 83.1719V71.6406C500.953 71.6406 507.562 75.2969 511.875 82.6094C513.844 85.9844 514.828 89.2656 514.828 92.4531V148H502.875V94C502.875 88.8438 500.719 85.4688 496.406 83.875C495.094 83.4062 493.641 83.1719 492.047 83.1719ZM524.812 130.281C524.812 135.438 527.344 139.797 532.406 143.359C536.719 146.359 541.781 147.859 547.594 147.859V136.891C539.438 136.703 535.312 133.609 535.219 127.609V123.812C535.312 121.75 535.875 120.25 536.906 119.312C538.031 118.281 543.047 116.688 551.953 114.531C558.891 112.844 563.578 111.344 566.016 110.031V126.203C566.016 132.297 563.062 135.812 557.156 136.75C556.219 136.844 555.328 136.891 554.484 136.891V147.859C561.047 147.766 566.203 146.125 569.953 142.938C572.859 146.219 576.656 147.859 581.344 147.859V136.75C578.906 136.562 577.641 135.016 577.547 132.109V93.5781C577.547 87.5781 575.25 82.3281 570.656 77.8281C566.344 73.7031 560.953 71.6406 554.484 71.6406V82.4688C558.891 82.4688 562.172 84.25 564.328 87.8125C565.453 89.6875 566.016 91.75 566.016 94V96.6719C566.016 99.0156 560.438 101.734 549.281 104.828C539.25 107.641 533.484 109.422 531.984 110.172C527.203 112.984 524.812 117.438 524.812 123.531V130.281ZM525.797 90.7656L536.203 94.7031C536.203 89.4531 538.359 85.7969 542.672 83.7344C544.266 82.9844 545.953 82.6094 547.734 82.6094V71.6406C541.266 71.6406 535.734 73.9844 531.141 78.6719C527.578 82.2344 525.797 86.2656 525.797 90.7656ZM591.891 148V48.7188H604.406V148H591.891ZM613.125 128.031L624.234 125.922C624.234 130.141 626.438 133.469 630.844 135.906C633 136.938 635.062 137.5 637.031 137.594V148.703C627.938 148.703 621.141 145.422 616.641 138.859C614.297 135.391 613.125 131.781 613.125 128.031ZM613.828 93.4375C613.828 84.9062 617.719 78.5781 625.5 74.4531C629.25 72.4844 633 71.5 636.75 71.5V82.4688C632.438 82.4688 629.109 84.25 626.766 87.8125C625.547 89.5938 624.938 91.4688 624.938 93.4375C624.938 96.4375 627.281 98.875 631.969 100.75C635.531 102.25 642.422 104.219 652.641 106.656C659.016 107.969 663.562 111.109 666.281 116.078C667.688 118.703 668.391 121.656 668.391 124.938C668.391 133.938 664.781 140.594 657.562 144.906C653.344 147.438 648.516 148.703 643.078 148.703V137.594C647.391 137.594 651 136.094 653.906 133.094C655.969 130.938 657 128.406 657 125.5C657 121.75 653.297 118.75 645.891 116.5C644.016 115.938 641.016 115.141 636.891 114.109C632.484 113.078 629.297 112.234 627.328 111.578C620.203 108.766 615.891 104.5 614.391 98.7812C614.016 97.0938 613.828 95.3125 613.828 93.4375ZM642.938 82.6094V71.5C651 71.5 657.516 74.5 662.484 80.5C665.578 84.3438 667.125 88.375 667.125 92.5938L656.016 94.4219C656.016 89.2656 653.203 85.6562 647.578 83.5938C645.891 82.9375 644.344 82.6094 642.938 82.6094Z" fill="#24A19C"/>
<rect x="83.5971" y="171" width="635.338" height="2" fill="#7A7878"/>
</svg>
